<?xml version="1.0" encoding="UTF-8" standalone="no"?>
<!-- Created with Inkscape (http://www.inkscape.org/) -->

<svg
   width="32"
   height="32"
   viewBox="0 0 32 32"
   version="1.1"
   id="svg1"
   inkscape:version="1.3.2 (091e20e, 2023-11-25)"
   sodipodi:docname="overkami_menu.svg"
   inkscape:export-filename="MacTrayIcon.png"
   inkscape:export-xdpi="87"
   inkscape:export-ydpi="87"
   xmlns:inkscape="http://www.inkscape.org/namespaces/inkscape"
   xmlns:sodipodi="http://sodipodi.sourceforge.net/DTD/sodipodi-0.dtd"
   xmlns="http://www.w3.org/2000/svg"
   xmlns:svg="http://www.w3.org/2000/svg">
  <sodipodi:namedview
     id="namedview1"
     pagecolor="#505050"
     bordercolor="#eeeeee"
     borderopacity="1"
     inkscape:showpageshadow="0"
     inkscape:pageopacity="0"
     inkscape:pagecheckerboard="0"
     inkscape:deskcolor="#505050"
     inkscape:document-units="px"
     inkscape:zoom="16"
     inkscape:cx="13.75"
     inkscape:cy="16.3125"
     inkscape:window-width="1792"
     inkscape:window-height="981"
     inkscape:window-x="304"
     inkscape:window-y="130"
     inkscape:window-maximized="0"
     inkscape:current-layer="layer1" />
  <defs
     id="defs1" />
  <g
     inkscape:label="Layer 1"
     inkscape:groupmode="layer"
     id="layer1">
    <path
       id="path10"
       style="fill:#000000;stroke-width:1.49302"
       d="M 23.644706,4.169922 17.924858,27.830078 H 31.527344 V 4.169922 Z m 3.837819,1.1914633 1.161102,1.1581537 1.163479,-1.1581537 0.573414,0.57139 -1.163481,1.1581536 1.187273,1.1812145 -0.568654,0.568828 -1.189652,-1.1837771 -1.189653,1.1837771 -0.573412,-0.568828 1.19203,-1.1837768 -1.163479,-1.1555913 z" />
    <path
       style="fill:#000000;fill-opacity:0.481087;stroke-width:1.58534"
       d="M 0.47265605,4.169922 V 27.830078 H 15.575721 L 22.02202,4.169922 Z m 8.29729675,7.340952 a 2.789909,2.6647783 0 0 1 1.5183542,0.389468 2.789909,2.6647783 0 0 1 0.928182,3.664069 2.789909,2.6647783 0 0 1 -3.833443,0.886551 2.789909,2.6647783 0 0 1 -0.9281811,-3.66407 2.789909,2.6647783 0 0 1 2.3150879,-1.276018 z M 6.9457815,17.832035 11.956886,26.33114 H 1.7415281 Z"
       id="rect1" />
    <path
       style="fill:none"
       id="path3"
       sodipodi:type="arc"
       sodipodi:cx="11.745164"
       sodipodi:cy="3.4037004"
       sodipodi:rx="2.1093354"
       sodipodi:ry="2.157275"
       sodipodi:start="2.1186364"
       sodipodi:end="1.0744068"
       sodipodi:arc-type="slice"
       d="M 10.646528,5.2452614 A 2.1093354,2.157275 0 0 1 9.721976,2.7934768 2.1093354,2.157275 0 0 1 11.799421,1.2471392 2.1093354,2.157275 0 0 1 13.79636,2.9006972 2.1093354,2.157275 0 0 1 12.749743,5.300609 L 11.745164,3.4037004 Z" />
  </g>
</svg>
